<svg width="10" height="20" viewBox="0 0 10 20" fill="none" xmlns="http://www.w3.org/2000/svg">
<path opacity="0.8" d="M7.66263 0.0195312C9.19739 0.0195312 9.64831 0.909717 9.64831 1.92777C9.64831 3.19829 8.63169 4.37373 6.89525 4.37373C5.44247 4.37373 4.75052 3.64421 4.79315 2.43598C4.79315 1.41793 5.64416 0.0195312 7.66263 0.0195312ZM3.73062 19.502C2.68121 19.502 1.91547 18.8642 2.64842 16.0691L3.85032 11.11C4.05856 10.3165 4.09299 9.99845 3.85032 9.99845C3.53714 9.99845 2.17454 10.546 1.37109 11.087L0.848022 10.2296C3.39776 8.10005 6.32955 6.85084 7.58392 6.85084C8.63333 6.85084 8.80714 8.09021 8.28408 9.99845L6.90673 15.2117C6.66241 16.133 6.76735 16.4511 7.01167 16.4511C7.32649 16.4511 8.35622 16.0707 9.36956 15.2723L9.96313 16.0691C7.48226 18.5478 4.77839 19.502 3.73062 19.502Z" fill="#18181B"/>
</svg>
